<?xml version="1.0" encoding="utf-8"?>
<!-- Generator: Adobe Illustrator 27.5.0, SVG Export Plug-In . SVG Version: 6.00 Build 0)  -->
<svg version="1.1" id="Layer_1" xmlns="http://www.w3.org/2000/svg" xmlns:xlink="http://www.w3.org/1999/xlink" x="0px" y="0px"
	 viewBox="0 0 160 106.7" style="enable-background:new 0 0 160 106.7;" xml:space="preserve">
<style type="text/css">
	.st0{fill:#293C51;}
	.st1{fill:#679A41;}
</style>
<g>
	<g>
		<path class="st0" d="M78.3,73.4v5.2h-36c-8,0.3-14.7-5.9-15.1-13.9c0-0.2,0-0.5,0-0.7v-1.1c0.2-11,6.5-20.9,16.3-25.8l1.2-0.6
			v-1.2c0.5-3.5,1.4-7,2.9-10.2l1.1,2.5l10.2,27.9l6.3-17.1h4.7l0.2,0.6l-4.7,13c-1.5,4.2-3.1,8.4-4.7,12.5h-3.8l-8.6-23.7h-0.1
			C38.4,44.3,32,53.7,32.3,64.1c0,5.1,4.2,9.3,9.3,9.3c0.2,0,0.4,0,0.6,0H78.3z"/>
		<path class="st1" d="M132.7,65.4v1.2c0,0.2,0,0.3,0,0.5l0,0c0,0.1,0,0.3,0,0.4c0,0.2,0,0.2,0,0.3c-0.9,4.7-4.8,10.8-14.8,10.8
			h-15.2L86.2,97.2V50.6h21.3v-7c0-0.1-0.1-0.2-0.2-0.3H85.9l-7.8,21.2h-3.8l-5.1-14l2.5-7.2l4.5,12.2l6.3-17.2h24.7
			c2.8,0,5.1,2.3,5.1,5.1v7c-0.1,2.8-2.3,5-5.1,5.1H90.9v27.9l10-10h16.6c7.8,0,9.9-5,9.9-8c0-10.3-7.1-11.2-7.9-11.2
			c-1.3-0.1-2.3-1.3-2.3-2.6c0-11.9-9.1-21.7-20.3-21.7c-0.8,0-1.6,0.1-2.3,0.2c-1.2,0.2-2.3-0.5-2.7-1.5
			c-4.7-11-17.5-16.1-28.5-11.4c-3.3,1.4-6.2,3.7-8.5,6.5l-2.2-5.5C63.1,7.7,80.1,7.6,90.7,18l0,0c1.7,1.7,3.1,3.6,4.3,5.6l0.7,1.1
			H97c6.6,0,12.9,2.7,17.5,7.4l0.4,0.4c1.5,1.6,2.8,3.3,3.9,5.2c0.4,0.7,0.8,1.4,1.1,2.1c1.2,2.6,2,5.3,2.3,8.1l0.2,1.3l1.2,0.5
			C127,51.3,132.8,55.2,132.7,65.4"/>
	</g>
</g>
</svg>
